# xmcd
# 
# Track frame offsets:
#     150
#     20619
#     38129
#     62483
#     80662
#     105855
#     122607
#     140782
#     164630
#     180513
#     199694
#     220128
#     234913
#     256142
# 
# Disc length: 3641
# 
# Revision: 0
# Processed by: cddbd v1.5.2PL0 Copyright (c) Steve Scherf et al.
# Submitted via: fre:ac v1.0.31
# 
DISCID=b90e370e
DTITLE=Nicki Parrott - The Look Of Love
DYEAR=2015
DGENRE=Jazz
TTITLE0=Moonlight Serenade
TTITLE1=The Look Of Love
TTITLE2=The Man That Got Away
TTITLE3=As Time Goes By
TTITLE4=The Way We Were
TTITLE5=Diamonds Are A Girl's Best Friend
TTITLE6=I've Grown Accustomed To His Face
TTITLE7=The Shadow Of Your Smile
TTITLE8=Incurably Romantic
TTITLE9=Moon River Cha Cha
TTITLE10=Over The Rainbow
TTITLE11=Raindrops Keep Fallin' On My Head
TTITLE12=On The Street Where You Live
TTITLE13=Smile
EXTD=
EXTT0=
EXTT1=
EXTT2=
EXTT3=
EXTT4=
EXTT5=
EXTT6=
EXTT7=
EXTT8=
EXTT9=
EXTT10=
EXTT11=
EXTT12=
EXTT13=
PLAYORDER=
